<?xml version="1.0" encoding="UTF-8"?>
<svg width="40px" height="35px" viewBox="0 0 40 35" version="1.1" xmlns="http://www.w3.org/2000/svg" xmlns:xlink="http://www.w3.org/1999/xlink">
    <!-- Generator: Sketch 42 (36781) - http://www.bohemiancoding.com/sketch -->
    <title>Combined Shape</title>
    <desc>Created with Sketch.</desc>
    <defs></defs>
    <g id="Page-1" stroke="none" stroke-width="1" fill="none" fill-rule="evenodd">
        <g id="right-quotation-mark" fill="#DEDEDE">
            <path d="M13.8462248,0.23 C15.1285763,0.23 16.2176715,0.679210286 17.1149857,1.575418 C18.0126686,2.47310095 18.4622477,3.56219617 18.4622477,4.84417889 L18.4622477,21.7677523 C18.4622477,23.4347724 18.1365887,25.0250801 17.4882211,26.5394129 C16.8383783,28.053377 15.9609799,29.3644957 14.8560259,30.4694497 C13.7495966,31.575879 12.4399532,32.4532774 10.9259891,33.101645 C9.41202504,33.751119 7.81987331,34.0753027 6.15469725,34.0753027 L4.61602294,34.0753027 C4.19816148,34.0753027 3.83783435,33.9226155 3.53393511,33.6187163 C3.22856063,33.314817 3.07734863,32.9530147 3.07734863,32.5366284 L3.07734863,29.4596486 C3.07734863,29.0432624 3.22856063,28.6829353 3.53393511,28.3775608 C3.83783435,28.0736615 4.19816148,27.9209743 4.61602294,27.9209743 L6.15469725,27.9209743 C7.85306619,27.9209743 9.30248854,27.3201832 10.5051772,26.118601 C11.7067594,24.9170188 12.3075505,23.46649 12.3075505,21.7677523 L12.3075505,20.9984151 C12.3075505,20.3574238 12.0829453,19.8126918 11.6348415,19.3634815 C11.1852624,18.9153776 10.6408992,18.6904037 9.99953899,18.6904037 L4.61602294,18.6904037 C3.33367141,18.6904037 2.24310095,18.2422998 1.345418,17.3449857 C0.448103857,16.4473027 0,15.3582075 0,14.0762248 L0,4.84565413 C0,3.56367141 0.449579096,2.47310095 1.345418,1.575418 C2.24310095,0.679210286 3.33367141,0.23 4.61602294,0.23 L13.8462248,0.23 Z M38.6531068,1.575418 C39.5518961,2.47310095 40,3.56219617 40,4.84417889 L40,21.7677523 C40,23.4347724 39.6758162,25.0250801 39.0259734,26.5394129 C38.3779747,28.053377 37.5005763,29.3644957 36.394147,30.4694497 C35.2877177,31.575879 33.9780743,32.4532774 32.4637414,33.101645 C30.9497773,33.751119 29.3591008,34.0753027 27.6924495,34.0753027 L26.1537752,34.0753027 C25.737389,34.0753027 25.3759554,33.9226155 25.0716874,33.6187163 C24.7677882,33.314817 24.6151009,32.9530147 24.6151009,32.5366284 L24.6151009,29.4596486 C24.6151009,29.0432624 24.7677882,28.6829353 25.0716874,28.3775608 C25.3759554,28.0736615 25.737389,27.9209743 26.1537752,27.9209743 L27.6924495,27.9209743 C29.3908185,27.9209743 30.8417161,27.3201832 32.0432983,26.118601 C33.2448805,24.9170188 33.846778,23.46649 33.846778,21.7677523 L33.846778,20.9984151 C33.846778,20.3574238 33.6221728,19.8126918 33.1725937,19.3634815 C32.7244899,18.9153776 32.1801267,18.6904037 31.5391353,18.6904037 L26.1537752,18.6904037 C24.8717925,18.6904037 23.7823285,18.2422998 22.8850143,17.3449857 C21.9873314,16.4473027 21.5392275,15.3582075 21.5392275,14.0762248 L21.5392275,4.84565413 C21.5392275,3.56367141 21.9873314,2.47310095 22.8850143,1.575418 C23.7823285,0.679210286 24.8717925,0.23 26.1537752,0.23 L35.3839771,0.23 C36.6663286,0.23 37.756899,0.679210286 38.6531068,1.575418 Z" id="Combined-Shape"></path>
        </g>
    </g>
</svg>